<svg fill="none" xmlns="http://www.w3.org/2000/svg" viewBox="0 0 371 416"><g filter="url(#a)"><path d="M65 285.3c67 0 63 83 0 0 17.4 256.5 414 37 0 0-67.2 0 262.4-293.5 0 0-319-233.5 755.4-504 0 0Z" fill="#D01F1F"/></g><g filter="url(#b)"><path d="M175.9 272v-51H197c3.8 0 7 .6 9.6 1.7 2.5 1 4.5 2.6 5.8 4.5 1.3 2 2 4.2 2 6.8 0 2-.5 3.6-1.3 5.2a10.7 10.7 0 0 1-3.3 3.7c-1.5 1-3.1 1.7-5 2.1v.5c2 .1 4 .7 5.7 1.7 1.8 1 3.2 2.4 4.2 4.2 1 1.8 1.6 3.9 1.6 6.4a13.2 13.2 0 0 1-8.1 12.4 22.6 22.6 0 0 1-9.6 1.8h-22.8Zm12.3-10h7.6c2.6 0 4.6-.4 5.9-1.4a5 5 0 0 0 1.9-4.3 6 6 0 0 0-1-3.3 6 6 0 0 0-2.6-2.3 9.5 9.5 0 0 0-4-.7h-7.8v12Zm0-20h6.8a9 9 0 0 0 3.5-.7c1-.4 1.9-1 2.5-1.9.6-.8.9-1.9.9-3 0-1.8-.6-3.1-1.8-4a7.6 7.6 0 0 0-5-1.5h-7V242Zm46.3-21v51h-12.2v-51h12.2Zm19.9 29.2V272h-12.2v-38.2h11.6v7h.4c.9-2.3 2.3-4.1 4.3-5.5 2-1.3 4.5-2 7.3-2 2.7 0 5 .6 7 1.8 2 1.2 3.5 2.9 4.6 5 1.1 2.2 1.7 4.7 1.7 7.6V272h-12.2v-22a7 7 0 0 0-1.6-5 5.8 5.8 0 0 0-4.5-1.7c-1.3 0-2.4.3-3.4.8-1 .6-1.7 1.4-2.2 2.4-.5 1-.8 2.3-.8 3.7Zm50 22.5c-4 0-7.5-.8-10.3-2.5-3-1.6-5.1-4-6.7-6.9a22 22 0 0 1-2.3-10.3c0-3.9.8-7.3 2.3-10.3a17 17 0 0 1 6.7-6.9c2.9-1.7 6.3-2.5 10.3-2.5 3.5 0 6.6.7 9.2 2 2.7 1.2 4.7 3 6.2 5.4 1.5 2.3 2.3 5 2.3 8.1h-11.3c-.3-2-1-3.5-2-4.6a5.6 5.6 0 0 0-4.2-1.6 6 6 0 0 0-3.7 1.2c-1.1.7-2 1.9-2.5 3.4-.6 1.6-.9 3.5-.9 5.7s.3 4.2.9 5.7a7.7 7.7 0 0 0 2.5 3.5 6 6 0 0 0 3.7 1.2 5.7 5.7 0 0 0 5.1-2.8c.6-1 1-2.1 1-3.5h11.4c0 3.2-.9 6-2.3 8.3a14.6 14.6 0 0 1-6.1 5.5c-2.6 1.3-5.7 2-9.3 2Zm35-10.7v-14.5h1.7l10.7-13.7h13.8l-16 19.6h-3.2l-7 8.6Zm-11 10v-51h12.1v51h-12.1Zm23.7 0-10-15.9 8-8.6 16 24.5h-14Z" fill="#000"/></g><defs><filter id="a" x="0" y="0" width="344.1" height="416" filterUnits="userSpaceOnUse" color-interpolation-filters="sRGB"><feFlood flood-opacity="0" result="BackgroundImageFix"/><feColorMatrix in="SourceAlpha" values="0 0 0 0 0 0 0 0 0 0 0 0 0 0 0 0 0 0 127 0" result="hardAlpha"/><feOffset dy="4"/><feGaussianBlur stdDeviation="2"/><feComposite in2="hardAlpha" operator="out"/><feColorMatrix values="0 0 0 0 0 0 0 0 0 0 0 0 0 0 0 0 0 0 0.25 0"/><feBlend in2="BackgroundImageFix" result="effect1_dropShadow_0_1"/><feBlend in="SourceGraphic" in2="effect1_dropShadow_0_1" result="shape"/></filter><filter id="b" x="171.9" y="221.1" width="198.3" height="59.6" filterUnits="userSpaceOnUse" color-interpolation-filters="sRGB"><feFlood flood-opacity="0" result="BackgroundImageFix"/><feColorMatrix in="SourceAlpha" values="0 0 0 0 0 0 0 0 0 0 0 0 0 0 0 0 0 0 127 0" result="hardAlpha"/><feOffset dy="4"/><feGaussianBlur stdDeviation="2"/><feComposite in2="hardAlpha" operator="out"/><feColorMatrix values="0 0 0 0 0 0 0 0 0 0 0 0 0 0 0 0 0 0 0.25 0"/><feBlend in2="BackgroundImageFix" result="effect1_dropShadow_0_1"/><feBlend in="SourceGraphic" in2="effect1_dropShadow_0_1" result="shape"/></filter></defs></svg>